<svg width="48" height="48" viewBox="0 0 48 48" fill="none" xmlns="http://www.w3.org/2000/svg">
<g clip-path="url(#clip0_2_17)">
<g clip-path="url(#clip1_2_17)">
<path d="M0 14C0 6.26801 6.26801 0 14 0H34C41.732 0 48 6.26801 48 14V34C48 41.732 41.732 48 34 48H14C6.26801 48 0 41.732 0 34V14Z" fill="#F86353"/>
<path d="M17.0564 15.9312H32.7899C36.7719 15.9312 40 12.7031 40 8.72101C40 8.32281 39.6772 8 39.279 8H24.3725C24.0811 8 23.8015 8.11553 23.595 8.32129L8.32399 23.5394C8.11658 23.7461 8 24.0269 8 24.3197V32.2227C8 36.5094 11.4905 39.9763 15.7771 39.9471C15.9816 39.9457 16.1771 39.8633 16.3209 39.718L31.6816 24.195C31.7179 24.1583 31.7674 24.1377 31.8191 24.1377C31.9264 24.1377 32.0132 24.2251 32.0124 24.3324L31.9548 32.6352C31.9266 36.6944 35.2093 40 39.2686 40C39.6725 40 40 39.6725 40 39.2686V24.9639C40 24.3555 39.5068 23.8623 38.8985 23.8623H32.1958C31.903 23.8623 31.6222 23.9789 31.4155 24.1863L16.1419 39.5137C16.1128 39.5429 16.0732 39.5594 16.0319 39.5594C15.9459 39.5594 15.8763 39.4895 15.8766 39.4036L15.9549 17.0289C15.957 16.422 16.4495 15.9312 17.0564 15.9312Z" fill="white"/>
<path d="M9.10155 8H17.7331C18.7144 8 19.2059 9.18652 18.512 9.88046L12.7839 15.6085C12.5773 15.8151 12.2971 15.9312 12.005 15.9312H9.10155C8.49318 15.9312 8 15.438 8 14.8296V9.10155C8 8.49318 8.49318 8 9.10155 8Z" fill="white"/>
</g>
</g>
<defs>
<clipPath id="clip0_2_17">
<rect width="48" height="48" fill="white"/>
</clipPath>
<clipPath id="clip1_2_17">
<rect width="48" height="48" fill="white"/>
</clipPath>
</defs>
</svg>
