<svg width="32" height="32" viewBox="0 0 32 32" fill="none" xmlns="http://www.w3.org/2000/svg">
<g clip-path="url(#clip0_103_23)">
<g clip-path="url(#clip1_103_23)">
<path d="M0 1.33333C0 0.596954 0.596954 0 1.33333 0H30.6667C31.403 0 32 0.596954 32 1.33333V30.6667C32 31.403 31.403 32 30.6667 32H1.33333C0.596954 32 0 31.403 0 30.6667V1.33333Z" fill="#F0BC35"/>
<path d="M6 14.9542V7.33408C6 7.22824 6.09987 7.14243 6.22306 7.14243H11.0497C11.1532 7.14243 11.2431 7.20363 11.2668 7.29022L16.6762 27.058C16.7368 27.2795 17.1164 27.2417 17.1164 27.0141V7.2593C17.1164 7.18753 17.163 7.12178 17.2373 7.08892L25.6746 3.35501C25.8389 3.28232 26.0289 3.40289 25.9963 3.55915L20.7994 28.5088C20.7804 28.6001 20.6879 28.6666 20.5798 28.6666H14.5134C14.4306 28.6666 14.3546 28.6273 14.316 28.5643L6.02571 15.0435C6.00882 15.016 6 14.9853 6 14.9542Z" fill="#0F0E0E"/>
</g>
</g>
<defs>
<clipPath id="clip0_103_23">
<rect width="32" height="32" fill="white"/>
</clipPath>
<clipPath id="clip1_103_23">
<rect width="32" height="32" fill="white"/>
</clipPath>
</defs>
</svg>
